<?xml version="1.0"?>
<svg xmlns="http://www.w3.org/2000/svg" xmlns:xlink="http://www.w3.org/1999/xlink" version="1.1" xml:space="preserve">
  <defs>
    <symbol id="CircularProgress" width="100%" height="100%" viewBox="22 22 44 44">
      <circle class="CircularProgress-circle" cx="44" cy="44" r="20.2" fill="none" stroke-width="3.6" style="animation: CircularProgress 1.4s ease-in-out infinite;"></circle>
    </symbol>

    <symbol id="heart" width="100%" height="100%" viewBox="0 0 20 18">
      <path d="M2.31802 2.31802C0.56066 4.07538 0.56066 6.92462 2.31802 8.68198L10.0001 16.364L17.682 8.68198C19.4393 6.92462 19.4393 4.07538 17.682 2.31802C15.9246 0.56066 13.0754 0.56066 11.318 2.31802L10.0001 3.63609L8.68198 2.31802C6.92462 0.56066 4.07538 0.56066 2.31802 2.31802Z" stroke-width="1.6" stroke-linecap="round" stroke-linejoin="round" />
    </symbol>

    <symbol id="chart" width="100%" height="100%" viewBox="0 0 20 18">
      <path d="M0.9 15.1V9.62727H4.00909V15.1H0.9ZM4.13526 9.63128C4.13525 9.6313 4.13465 9.63116 4.13353 9.63078L4.13526 9.63128ZM4.13526 15.096C4.13528 15.096 4.13471 15.0962 4.13351 15.0965L4.13526 15.096ZM0.773827 15.096C0.773845 15.096 0.774439 15.0961 0.775557 15.0965L0.773827 15.096ZM0.773827 9.63128C0.77381 9.63126 0.774376 9.63106 0.775581 9.63077L0.773827 9.63128ZM13.9909 15.1V6.71818H17.1V15.1H13.9909ZM17.2262 6.72219C17.2261 6.72221 17.2256 6.72207 17.2244 6.72169L17.2262 6.72219ZM17.2262 15.096C17.2262 15.096 17.2256 15.0962 17.2244 15.0965L17.2262 15.096ZM13.8647 15.096C13.8648 15.096 13.8654 15.0961 13.8665 15.0965L13.8647 15.096ZM13.8647 6.72219C13.8647 6.72216 13.8653 6.72197 13.8665 6.72168L13.8647 6.72219ZM7.44545 15.1V0.9H10.5545V15.1H7.44545ZM10.6807 0.904008C10.6807 0.904032 10.6801 0.903888 10.679 0.903504L10.6807 0.904008ZM10.6807 15.096C10.6807 15.096 10.6802 15.0962 10.679 15.0965L10.6807 15.096ZM7.31928 15.096C7.3193 15.096 7.31989 15.0961 7.32101 15.0965L7.31928 15.096ZM7.31928 0.904008C7.31926 0.903984 7.31983 0.903787 7.32104 0.903496L7.31928 0.904008Z" stroke-width="1.8" />
    </symbol>

  </defs>

  <style>
    @keyframes CircularProgress {

      0% {
        stroke-dasharray : 1px, 200px;
        stroke-dashoffset: 0px;
      }
    
      50% {
        stroke-dasharray : 100px, 200px;
        stroke-dashoffset: -15px;
      }
    
      100% {
        stroke-dasharray : 100px, 200px;
        stroke-dashoffset: -125px;
      }
    }
  </style>
</svg>