<svg width="14" height="14" viewBox="0 0 14 14" fill="none" xmlns="http://www.w3.org/2000/svg">
<path fill-rule="evenodd" clip-rule="evenodd" d="M3.5 3.5V2.625C3.5 1.17525 4.67525 0 6.125 0H7.875C9.32475 0 10.5 1.17525 10.5 2.625V3.5H12.25C13.2165 3.5 14 4.2835 14 5.25V8.37442C11.8209 9.18289 9.46303 9.62495 7.00002 9.62495C4.537 9.62495 2.17907 9.18288 0 8.3744V5.25C0 4.2835 0.783502 3.5 1.75 3.5H3.5ZM5.25 2.625C5.25 2.14175 5.64175 1.75 6.125 1.75H7.875C8.35825 1.75 8.75 2.14175 8.75 2.625V3.5H5.25V2.625ZM6.125 7C6.125 6.51675 6.51675 6.125 7 6.125H7.00875C7.492 6.125 7.88375 6.51675 7.88375 7C7.88375 7.48325 7.492 7.875 7.00875 7.875H7C6.51675 7.875 6.125 7.48325 6.125 7Z" fill="#828A99"/>
<path d="M0 10.2307V12.25C0 13.2165 0.783502 14 1.75 14H12.25C13.2165 14 14 13.2165 14 12.25V10.2307C11.8013 10.9729 9.44685 11.375 7.00002 11.375C4.55317 11.375 2.19869 10.9729 0 10.2307Z" fill="#828A99"/>
</svg>
