<svg width="15" height="16" viewBox="0 0 15 16" fill="none" xmlns="http://www.w3.org/2000/svg">
<path d="M14.0625 1.40625V0.46875C14.0625 0.209717 13.8528 0 13.5938 0H0.46875C0.209717 0 0 0.209717 0 0.46875V1.40625C0 1.66528 0.209717 1.875 0.46875 1.875H13.5938C13.8528 1.875 14.0625 1.66528 14.0625 1.40625Z" fill="#0092E4"/>
<path d="M3.75 2.8125H6.5625V5.65625H3.75V2.8125Z" fill="#0092E4"/>
<path d="M7.5 6.59375H10.3125V9.40625H7.5V6.59375Z" fill="#0092E4"/>
<path d="M3.75 6.59375H6.5625V9.40625H3.75V6.59375Z" fill="#0092E4"/>
<path d="M3.75 10.3438H6.5625V13.1875H3.75V10.3438Z" fill="#0092E4"/>
<path d="M0.9375 2.8125H2.8125V13.1875H0.9375V2.8125Z" fill="#0092E4"/>
<path d="M11.25 2.8125H13.125V13.1875H11.25V2.8125Z" fill="#0092E4"/>
<path d="M7.5 2.8125H10.3125V5.65625H7.5V2.8125Z" fill="#0092E4"/>
<path d="M7.5 10.3438H10.3125V13.1875H7.5V10.3438Z" fill="#0092E4"/>
<path d="M0 15.5312C0 15.7903 0.209717 16 0.46875 16H13.5938C13.8528 16 14.0625 15.7903 14.0625 15.5312V14.5938C14.0625 14.3347 13.8528 14.125 13.5938 14.125H0.46875C0.209717 14.125 0 14.3347 0 14.5938V15.5312Z" fill="#0092E4"/>
</svg>
