<svg width="16" height="16" viewBox="0 0 16 16" fill="none" xmlns="http://www.w3.org/2000/svg">
<path d="M7.04313 7.04281C6.6525 7.43344 6.6525 8.06656 7.04313 8.45687C7.43344 8.8475 8.06688 8.8475 8.45719 8.45687C8.84781 8.06625 8.84781 7.43313 8.45719 7.04281C8.06656 6.6525 7.43344 6.6525 7.04313 7.04281ZM7.75 0C3.46969 0 0 3.46969 0 7.75C0 12.0303 3.46969 15.5 7.75 15.5C12.0303 15.5 15.5 12.0303 15.5 7.75C15.5 3.46969 12.0303 0 7.75 0ZM11.6919 4.62656L9.63031 9.1375C9.5306 9.35565 9.35565 9.5306 9.1375 9.63031L4.62687 11.6919C4.10656 11.9297 3.57031 11.3934 3.80813 10.8731L5.87 6.36219C5.96972 6.14404 6.14466 5.96909 6.36281 5.86938L10.8734 3.80781C11.3938 3.57031 11.9297 4.10625 11.6919 4.62656Z" fill="#0092E4"/>
</svg>
