<svg width="14" height="16" viewBox="0 0 14 16" fill="none" xmlns="http://www.w3.org/2000/svg">
<path d="M4.90144 9.48486L4.70605 9.94215L6.58842 11.7647L8.47078 9.94212L8.27539 9.48486C7.21653 10.0145 5.96228 10.0155 4.90144 9.48486Z" fill="#0092E4"/>
<path d="M3.60866 10.1145L2.12671 10.4439C0.891639 10.7182 0 11.8157 0 13.0947V15.9997H4.88389V13.4519L5.92257 12.4132L3.60866 10.1145Z" fill="#0092E4"/>
<path d="M9.41172 0.94128C9.08909 0.699586 8.08237 0.00989196 6.61956 0.000103728C5.11835 -0.00987274 4.08336 0.702567 3.76465 0.94128V2.35295H9.41172C9.41172 1.56864 9.41172 1.72559 9.41172 0.94128Z" fill="#0092E4"/>
<path d="M3.90508 6.9993C4.27537 8.12695 5.33655 8.94129 6.58806 8.94129C7.83961 8.94129 8.90075 8.12695 9.27107 6.9993C9.62803 6.86556 9.88218 6.52143 9.88218 6.11776C9.88218 5.76943 9.69285 5.46556 9.41159 5.3028V4.62524L7.91911 6.11776H5.25702L3.76453 4.62524V5.30283C3.48328 5.46559 3.29395 5.76946 3.29395 6.11779C3.29395 6.52143 3.54813 6.86556 3.90508 6.9993Z" fill="#0092E4"/>
<path d="M7.52936 5.17655L9.41172 3.29419H3.76465L5.64701 5.17655H7.52936Z" fill="#0092E4"/>
<path d="M11.05 10.4441L9.56801 10.1147L5.8252 13.8419V16H13.1766V13.0949C13.1766 11.8298 12.2985 10.7214 11.05 10.4441ZM10.8237 13.647H8.94131V12.7058H10.8237V13.647Z" fill="#0092E4"/>
</svg>
