<svg width="12" height="16" viewBox="0 0 12 16" fill="none" xmlns="http://www.w3.org/2000/svg">
<path d="M11.5555 16C11.3103 16 11.1111 15.8008 11.1111 15.5556V0.88887H0.88887V15.5556C0.88887 15.8008 0.689765 16 0.444435 16C0.199106 16 0 15.8007 0 15.5556V0.444435C0 0.199106 0.199106 0 0.444435 0H11.5555C11.8008 0 11.9999 0.199106 11.9999 0.444435V15.5556C12 15.8008 11.8008 16 11.5555 16ZM10.5555 1.66668V15.5556H1.44444V1.66668H10.5555ZM3.66666 8.7222C3.66666 8.32337 3.39309 8.00002 3.05553 8.00002C2.71798 8.00002 2.44441 8.32337 2.44441 8.7222C2.44441 9.12107 2.71798 9.44446 3.05553 9.44446C3.39309 9.44446 3.66666 9.12107 3.66666 8.7222Z" fill="#0092E4"/>
</svg>
