<svg width="19" height="14" viewBox="0 0 19 14" fill="none" xmlns="http://www.w3.org/2000/svg">
<path d="M17.1741 6.11029C17.5804 6.64171 17.5804 7.35914 17.1741 7.88971C15.8944 9.56029 12.8241 13 9.23955 13C5.65498 13 2.58469 9.56029 1.30497 7.88971C1.1073 7.63526 1 7.32222 1 7C1 6.67778 1.1073 6.36474 1.30497 6.11029C2.58469 4.43971 5.65498 1 9.23955 1C12.8241 1 15.8944 4.43971 17.1741 6.11029V6.11029Z" stroke="#828A99" stroke-width="1.6" stroke-linecap="round" stroke-linejoin="round"/>
<path d="M9.2394 9.57145C10.6596 9.57145 11.8108 8.42018 11.8108 7.00002C11.8108 5.57986 10.6596 4.42859 9.2394 4.42859C7.81924 4.42859 6.66797 5.57986 6.66797 7.00002C6.66797 8.42018 7.81924 9.57145 9.2394 9.57145Z" stroke="#828A99" stroke-width="1.6" stroke-linecap="round" stroke-linejoin="round"/>
</svg>
