<svg width="14" height="12" viewBox="0 0 14 12" fill="none" xmlns="http://www.w3.org/2000/svg">
<path d="M5.18759 6C5.18759 6.46413 5.37196 6.90925 5.70015 7.23744C6.02834 7.56563 6.47346 7.75 6.93759 7.75C7.40172 7.75 7.84684 7.56563 8.17503 7.23744C8.50322 6.90925 8.68759 6.46413 8.68759 6C8.68759 5.53587 8.50322 5.09075 8.17503 4.76256C7.84684 4.43437 7.40172 4.25 6.93759 4.25C6.47346 4.25 6.02834 4.43437 5.70015 4.76256C5.37196 5.09075 5.18759 5.53587 5.18759 6ZM13.722 5.59688C12.2407 2.47656 10.0017 0.90625 7.00009 0.90625C3.99696 0.90625 1.75947 2.47656 0.278215 5.59844C0.218802 5.72425 0.187988 5.86165 0.187988 6.00078C0.187988 6.13991 0.218802 6.27732 0.278215 6.40312C1.75947 9.52344 3.99853 11.0938 7.00009 11.0938C10.0032 11.0938 12.2407 9.52344 13.722 6.40156C13.8423 6.14844 13.8423 5.85469 13.722 5.59688ZM6.93759 8.75C5.41884 8.75 4.18759 7.51875 4.18759 6C4.18759 4.48125 5.41884 3.25 6.93759 3.25C8.45634 3.25 9.68759 4.48125 9.68759 6C9.68759 7.51875 8.45634 8.75 6.93759 8.75Z" fill="#828A99"/>
</svg>
