<svg width="17" height="18" viewBox="0 0 17 18" fill="none" xmlns="http://www.w3.org/2000/svg">
<path d="M8.76354 4.64583C8.76354 6.27277 7.44465 7.59167 5.81771 7.59167C4.19077 7.59167 2.87187 6.27277 2.87187 4.64583C2.87187 3.01889 4.19077 1.7 5.81771 1.7C7.44465 1.7 8.76354 3.01889 8.76354 4.64583Z" stroke="#828A99" stroke-width="1.9"/>
<rect x="0.516504" y="3.67861" width="3.05735" height="1.93445" rx="0.967225" fill="#828A99" stroke="#828A99" stroke-width="0.3"/>
<circle cx="11.0031" cy="13.2155" r="2.94583" transform="rotate(-180 11.0031 13.2155)" stroke="#828A99" stroke-width="1.9"/>
<rect x="8.71328" y="3.67861" width="7.20821" height="1.93445" rx="0.967225" fill="#828A99" stroke="#828A99" stroke-width="0.3"/>
<rect x="8.10801" y="14.1827" width="7.21167" height="1.93445" rx="0.967225" transform="rotate(-180 8.10801 14.1827)" fill="#828A99" stroke="#828A99" stroke-width="0.3"/>
<rect x="16.2188" y="14.1827" width="2.62969" height="1.93445" rx="0.967224" transform="rotate(-180 16.2188 14.1827)" fill="#828A99" stroke="#828A99" stroke-width="0.3"/>
</svg>
