<svg width="14" height="14" viewBox="0 0 14 14" fill="none" xmlns="http://www.w3.org/2000/svg">
<path fill-rule="evenodd" clip-rule="evenodd" d="M13.4001 5.4001C13.4001 8.05106 11.2511 10.2001 8.6001 10.2001C8.11516 10.2001 7.64702 10.1282 7.20575 9.99444L5.4001 11.8001H3.8001V13.4001H0.600098V10.2001L4.00575 6.79444C3.87201 6.35318 3.8001 5.88504 3.8001 5.4001C3.8001 2.74913 5.94913 0.600098 8.6001 0.600098C11.2511 0.600098 13.4001 2.74913 13.4001 5.4001ZM8.6001 2.2001C8.15827 2.2001 7.8001 2.55827 7.8001 3.0001C7.8001 3.44193 8.15827 3.8001 8.6001 3.8001C9.48375 3.8001 10.2001 4.51644 10.2001 5.4001C10.2001 5.84193 10.5583 6.2001 11.0001 6.2001C11.4419 6.2001 11.8001 5.84193 11.8001 5.4001C11.8001 3.63279 10.3674 2.2001 8.6001 2.2001Z" fill="#828A99"/>
</svg>
