<svg width="16" height="16" viewBox="0 0 16 16" fill="none" xmlns="http://www.w3.org/2000/svg">
<path d="M0 0.3125V15.6863C0 15.8588 0.139906 15.9988 0.3125 15.9988H2.01688V4.89562C2.01688 4.63675 2.22675 4.42687 2.48563 4.42687H13.5144C13.7732 4.42687 13.9831 4.63675 13.9831 4.89562V15.9988H15.6875C15.8601 15.9988 16 15.8588 16 15.6863V0.3125C16 0.139906 15.8601 0 15.6875 0H0.3125C0.139906 0 0 0.139906 0 0.3125ZM6.32281 3.16125C6.11188 3.31094 5.81906 3.26188 5.66906 3.05094L5.24281 2.45156L4.81656 3.05094C4.66625 3.26188 4.37375 3.31125 4.16281 3.16125C3.95188 3.01094 3.9025 2.71844 4.0525 2.5075L4.86062 1.37125C5.0475 1.10875 5.43781 1.10875 5.62469 1.37125L6.43281 2.5075C6.58313 2.71844 6.53375 3.01094 6.32281 3.16125ZM11.9475 1.91469L11.1394 3.05094C10.9525 3.31313 10.5622 3.31344 10.3753 3.05094L9.56719 1.91469C9.41687 1.70375 9.46625 1.41125 9.67719 1.26094C9.88813 1.11094 10.1809 1.16031 10.3309 1.37125L10.7572 1.97063L11.1834 1.37125C11.3337 1.16031 11.6263 1.11094 11.8372 1.26094C12.0481 1.41125 12.0975 1.70375 11.9475 1.91469ZM8.46875 15.9988H13.0456V5.36437H8.46875V15.9988ZM2.95438 15.9988H7.53125V5.36437H2.95438V15.9988Z" fill="#0092E4"/>
</svg>
