<svg width="16" height="16" viewBox="0 0 16 16" fill="none" xmlns="http://www.w3.org/2000/svg">
<path d="M10.3272 3.1272C11.0302 2.42425 12.1699 2.42425 12.8728 3.1272C13.5758 3.83014 13.5758 4.96984 12.8728 5.67278L10.1728 8.37278C9.46988 9.07572 8.33018 9.07572 7.62724 8.37278C7.27577 8.02131 6.70592 8.02131 6.35445 8.37278C6.00298 8.72425 6.00298 9.2941 6.35445 9.64557C7.76034 11.0515 10.0397 11.0515 11.4456 9.64557L14.1456 6.94557C15.5515 5.53968 15.5515 3.26029 14.1456 1.8544C12.7397 0.448516 10.4603 0.448516 9.05445 1.8544L7.70445 3.2044C7.35298 3.55587 7.35298 4.12572 7.70445 4.4772C8.05592 4.82867 8.62577 4.82867 8.97724 4.4772L10.3272 3.1272Z" fill="#233040"/>
<path d="M5.82726 7.62719C6.5302 6.92425 7.6699 6.92425 8.37284 7.62719C8.72431 7.97867 9.29416 7.97867 9.64563 7.62719C9.99711 7.27572 9.99711 6.70587 9.64563 6.3544C8.23975 4.94852 5.96035 4.94852 4.55446 6.3544L1.85446 9.0544C0.448577 10.4603 0.448577 12.7397 1.85446 14.1456C3.26035 15.5515 5.53975 15.5515 6.94563 14.1456L8.29563 12.7956C8.6471 12.4441 8.6471 11.8743 8.29563 11.5228C7.94416 11.1713 7.37431 11.1713 7.02284 11.5228L5.67284 12.8728C4.9699 13.5757 3.8302 13.5757 3.12726 12.8728C2.42431 12.1698 2.42431 11.0301 3.12726 10.3272L5.82726 7.62719Z" fill="#233040"/>
</svg>
