<svg width="16" height="18" viewBox="0 0 16 18" fill="none" xmlns="http://www.w3.org/2000/svg">
<path d="M11.5 8.11111V8.91111H12.3V8.11111H11.5ZM4.5 8.11111H3.7V8.91111H4.5V8.11111ZM8.8 11.6667C8.8 11.2248 8.44183 10.8667 8 10.8667C7.55817 10.8667 7.2 11.2248 7.2 11.6667H8.8ZM7.2 13.4444C7.2 13.8863 7.55817 14.2444 8 14.2444C8.44183 14.2444 8.8 13.8863 8.8 13.4444H7.2ZM2.75 8.91111H13.25V7.31111H2.75V8.91111ZM14.2 9.88889V15.2222H15.8V9.88889H14.2ZM13.25 16.2H2.75V17.8H13.25V16.2ZM1.8 15.2222V9.88889H0.2V15.2222H1.8ZM2.75 16.2C2.23716 16.2 1.8 15.7742 1.8 15.2222H0.2C0.2 16.634 1.32984 17.8 2.75 17.8V16.2ZM14.2 15.2222C14.2 15.7742 13.7628 16.2 13.25 16.2V17.8C14.6702 17.8 15.8 16.634 15.8 15.2222H14.2ZM13.25 8.91111C13.7628 8.91111 14.2 9.33695 14.2 9.88889H15.8C15.8 8.47715 14.6702 7.31111 13.25 7.31111V8.91111ZM2.75 7.31111C1.32984 7.31111 0.2 8.47715 0.2 9.88889H1.8C1.8 9.33695 2.23716 8.91111 2.75 8.91111V7.31111ZM10.7 4.55556V8.11111H12.3V4.55556H10.7ZM11.5 7.31111H4.5V8.91111H11.5V7.31111ZM5.3 8.11111V4.55556H3.7V8.11111H5.3ZM8 1.8C9.47934 1.8 10.7 3.02178 10.7 4.55556H12.3C12.3 2.16197 10.3867 0.2 8 0.2V1.8ZM8 0.2C5.61334 0.2 3.7 2.16197 3.7 4.55556H5.3C5.3 3.02178 6.52066 1.8 8 1.8V0.2ZM7.2 11.6667V13.4444H8.8V11.6667H7.2Z" fill="#828A99"/>
</svg>
