<svg width="16" height="16" viewBox="0 0 16 16" fill="none" xmlns="http://www.w3.org/2000/svg">
<path d="M7.68155 5.21606C7.27554 5.21606 7.00777 5.25506 6.85352 5.29441V7.89898C7.02971 7.93833 7.23654 7.95121 7.52451 7.95121C8.58479 7.95121 9.23907 7.41428 9.23907 6.51173C9.23941 5.70007 8.67602 5.21606 7.68155 5.21606Z" fill="#0092E4"/>
<path d="M13.7523 0H1.89528C0.848226 0 0 0.848574 0 1.89528V14.1051C0 15.1518 0.848574 16 1.89528 16H13.7523C14.7994 16 15.6473 15.1514 15.6473 14.1051V1.89528C15.6476 0.848226 14.7994 0 13.7523 0ZM14.4797 13.8011C14.4797 14.3711 14.018 14.8321 13.4487 14.8321H2.17732C1.60766 14.8321 1.14594 14.3704 1.14594 13.8011V2.2212C1.14594 1.65188 1.60766 1.19016 2.17732 1.19016H13.4484C14.018 1.19016 14.4794 1.65188 14.4794 2.2212L14.4797 13.8011Z" fill="#0092E4"/>
<path d="M13.4484 1.91772H2.17738C2.00954 1.91772 1.87305 2.05352 1.87305 2.22171V13.8016C1.87305 13.9687 2.00919 14.1056 2.17738 14.1056H13.4484C13.6159 14.1056 13.7524 13.9691 13.7524 13.8016V2.22136C13.7524 2.05352 13.6162 1.91772 13.4484 1.91772ZM10.4075 8.55416C9.7275 9.1952 8.71631 9.48316 7.53799 9.48316C7.27649 9.48316 7.05259 9.46993 6.85411 9.44382V12.6062H4.89268V3.89413C5.5097 3.78932 6.36767 3.71063 7.58499 3.71063C8.81555 3.71063 9.69024 3.94636 10.2797 4.41783C10.8421 4.86249 11.2209 5.59581 11.2209 6.45936C11.2209 7.32395 10.9319 8.05727 10.4075 8.55416Z" fill="#0092E4"/>
</svg>
