<svg width="20" height="20" viewBox="0 0 20 20" fill="none" xmlns="http://www.w3.org/2000/svg">
<path d="M19.309 11.118C19.7325 10.9063 20 10.4735 20 9.99999C20 9.52652 19.7325 9.0937 19.309 8.88196L1.80906 0.131978C1.36569 -0.0897087 0.833206 -0.028451 0.451756 0.288126C0.0703029 0.604702 -0.0880337 1.11678 0.0481471 1.59341L1.83385 7.84338C1.98717 8.38001 2.47766 8.74998 3.03575 8.74998L8.75003 8.74998C9.44038 8.74998 10 9.30962 10 9.99997C10 10.6903 9.44038 11.25 8.75003 11.25L3.03576 11.25C2.47766 11.25 1.98718 11.6199 1.83386 12.1566L0.0481464 18.4066C-0.0880345 18.8832 0.0703021 19.3953 0.451755 19.7118C0.833205 20.0284 1.36569 20.0897 1.80906 19.868L19.309 11.118Z" fill="white"/>
</svg>
