<svg width="17" height="17" viewBox="0 0 17 17" fill="none" xmlns="http://www.w3.org/2000/svg">
<path d="M7.19693 2.52457C7.52858 1.15848 9.47142 1.15848 9.80307 2.52457C10.0173 3.40706 11.0284 3.82585 11.8039 3.35333C13.0043 2.62186 14.3781 3.99566 13.6467 5.19614C13.1742 5.97164 13.5929 6.98269 14.4754 7.19693C15.8415 7.52858 15.8415 9.47142 14.4754 9.80307C13.5929 10.0173 13.1742 11.0284 13.6467 11.8039C14.3781 13.0043 13.0043 14.3781 11.8039 13.6467C11.0284 13.1742 10.0173 13.5929 9.80307 14.4754C9.47142 15.8415 7.52858 15.8415 7.19693 14.4754C6.98269 13.5929 5.97164 13.1742 5.19615 13.6467C3.99566 14.3781 2.62186 13.0043 3.35333 11.8039C3.82585 11.0284 3.40706 10.0173 2.52457 9.80307C1.15848 9.47142 1.15848 7.52858 2.52457 7.19693C3.40706 6.98269 3.82585 5.97164 3.35333 5.19614C2.62186 3.99566 3.99566 2.62186 5.19614 3.35333C5.97164 3.82585 6.98269 3.40706 7.19693 2.52457Z" stroke="#0092E4" stroke-width="1.6" stroke-linecap="round" stroke-linejoin="round"/>
<path d="M10.8333 8.5C10.8333 9.78866 9.78866 10.8333 8.5 10.8333C7.21134 10.8333 6.16667 9.78866 6.16667 8.5C6.16667 7.21134 7.21134 6.16667 8.5 6.16667C9.78866 6.16667 10.8333 7.21134 10.8333 8.5Z" stroke="#0092E4" stroke-width="1.6" stroke-linecap="round" stroke-linejoin="round"/>
</svg>
