<svg width="16" height="9" viewBox="0 0 16 9" fill="none" xmlns="http://www.w3.org/2000/svg">
<path fill-rule="evenodd" clip-rule="evenodd" d="M11.0117 0.175479L3.92654 7.51817L0.985313 4.51674L0.907824 4.45063C0.688982 4.29548 0.380619 4.30952 0.177436 4.49742C-0.0511458 4.7088 -0.0600504 5.06016 0.157546 5.28221L3.51587 8.70927L3.5966 8.77767C3.82476 8.93714 4.14704 8.91303 4.34666 8.70616L11.8455 0.934729L11.909 0.855814C12.056 0.63474 12.024 0.336472 11.8194 0.150106C11.5891 -0.0595548 11.2275 -0.0481954 11.0117 0.175479ZM15.0098 0.177385L7.58122 7.94881L7.51807 8.02802C7.37214 8.24976 7.40556 8.54788 7.61113 8.73331C7.84239 8.94192 8.20395 8.92891 8.4187 8.70425L15.8473 0.932824L15.9104 0.85362C16.0563 0.631878 16.0229 0.333759 15.8174 0.148329C15.5861 -0.0602796 15.2245 -0.0472711 15.0098 0.177385Z" fill="#0092E4"/>
</svg>
