<svg width="16" height="16" viewBox="0 0 16 16" fill="none" xmlns="http://www.w3.org/2000/svg">
<path d="M11.6916 10.2297C14.1044 10.0063 16 7.97031 16 5.5C16 2.46719 13.5328 0 10.5 0C9.95644 0 8.81772 0 8.5 0C8.22388 0 8 0.223844 8 0.5C8 0.776156 8.22388 1 8.5 1H9V5H2.5V3C2.5 2.17287 1.82709 1.5 1 1.5H0.5C0.223875 1.5 0 1.72384 0 2C0 2.27616 0.223875 2.5 0.5 2.5H1C1.27569 2.5 1.5 2.72431 1.5 3V5.5C1.5 7.97031 3.39563 10.0063 5.80875 10.2297C5.81188 10.2297 5.79572 10.22 7.903 11.7613C6.29209 12.9395 6.35406 12.889 6.35719 12.8916C5.22162 11.9692 3.50531 12.7763 3.50531 14.25C3.50531 15.215 4.29031 16 5.25531 16C6.43706 16 7.28428 14.8437 6.92219 13.7175L8.74997 12.3807L10.5828 13.7212C10.2232 14.8421 11.0634 16 12.2475 16C13.2109 16 13.9947 15.2162 13.9947 14.2525C13.9947 12.7789 12.2783 11.9769 11.1478 12.8956L9.59694 11.7613C11.2639 10.5422 11.6947 10.2294 11.6916 10.2297ZM8.74997 11.1418L7.53062 10.25H9.96937L8.74997 11.1418Z" fill="#0092E4"/>
</svg>
