<svg width="15" height="16" viewBox="0 0 15 16" fill="none" xmlns="http://www.w3.org/2000/svg">
<path d="M13.4667 13.6117H13.0333V0.692309C13.0333 0.30997 12.7234 0 12.341 0H1.81791C1.43548 0 1.1256 0.30997 1.1256 0.692309V13.6117H0.692309C0.309878 13.6117 0 13.9217 0 14.304V15.3078C0 15.6901 0.309878 16.0001 0.692309 16.0001H13.4668C13.8492 16.0001 14.1591 15.6901 14.1591 15.3078V14.304C14.159 13.9217 13.849 13.6117 13.4667 13.6117ZM8.63328 2.24613C8.75153 3.50788 9.06814 6.34644 9.66805 8.30992C10.0078 9.42196 10.3922 10.2661 10.7255 10.8739V12.6768H8.23322V2.24604H8.63328V2.24613ZM3.43321 10.7836C3.75472 10.1834 4.11832 9.36759 4.44149 8.31002C5.04149 6.34644 5.35801 3.50798 5.47626 2.24622H5.92552V12.677H3.43321V10.7836Z" fill="#0092E4"/>
</svg>
